<svg id="Ebene_1" data-name="Ebene 1" xmlns="http://www.w3.org/2000/svg" viewBox="0 0 1949.66 566.07"><defs><style>.cls-1,.cls-2{fill:#fff;}.cls-2{font-size:300px;font-family:Helvetica;}</style></defs><path class="cls-1" d="M312,983.25A104.9,104.9,0,0,0,300.33,988c-3.63,1.72-177.48,94.28-182.14,97a105.77,105.77,0,0,0-36.8,35.31A96.58,96.58,0,0,0,68,1156.14c-1.17,7.53-1.1.46-1.19,104.18-.06,97,0,100.88.73,107a97.16,97.16,0,0,0,19.67,47.38,101.87,101.87,0,0,0,11.54,12.49A104.56,104.56,0,0,0,120.5,1443c1.34.73,41.55,22.18,89.36,47.66,50.61,27,88.8,47.19,91.35,48.37a112.77,112.77,0,0,0,27.08,8.72l2.6.51H369.8l2.59-.51a112.85,112.85,0,0,0,27.09-8.72c2.55-1.18,40.82-21.45,91.34-48.37,47.82-25.48,88.05-46.93,89.37-47.66a116.71,116.71,0,0,0,14.62-9.58,137.19,137.19,0,0,0,13.91-12.92c13.68-15.44,22-33.44,24.45-53.12.77-6.11.79-10.47.73-107.23-.09-103.5,0-96.45-1.19-104-4.53-29.2-23.09-55.49-50.21-71.16-4.29-2.47-178.38-95.15-181.92-96.86a111.13,111.13,0,0,0-12-4.93l-3-1h-70.5ZM353.86,1082a32.24,32.24,0,0,1,7.83,2c1.07.42,22.88,11.93,48.45,25.56s46.85,24.92,47.27,25.12c1.69.77,52.78,28,54.52,29.1a33.3,33.3,0,0,1,7.78,7.2,24.47,24.47,0,0,1,4.84,14.32,12,12,0,0,1-1.68,7.1,11.1,11.1,0,0,1-2.9,3.56,14.06,14.06,0,0,1-7,3.75c-1.72.4-2.53.4-45.2.4-47.75,0-45.13.07-49.29-1.21a34.88,34.88,0,0,1-3.3-1.24c-.77-.35-14-7.35-29.41-15.56s-28.58-15.16-29.26-15.4a18.32,18.32,0,0,0-12.27,0c-.92.34-46.52,24.55-78.11,41.45-4.42,2.35-6.38,4.14-8.11,7.47s-1.63-.61-1.63,47.9c0,40.31,0,43.32.37,44.57a15.86,15.86,0,0,0,7.33,9.36c.85.49,19,10.18,40.34,21.57,27.23,14.5,39.3,20.83,40.49,21.22a17.54,17.54,0,0,0,10.91,0c1.2-.41,13.19-6.68,40.71-21.35,21.46-11.42,39.73-21.2,40.56-21.71a15.63,15.63,0,0,0,6.75-8.66c.4-1.36.46-2.33.55-7l.11-5.42-34.36-.08c-30.54-.06-34.6-.1-36.25-.38a46.67,46.67,0,0,1-11.22-3.31c-10.55-4.91-18.15-13.55-21-23.84-1.14-4.22-1.21-5.26-1.21-22.24v-15.7l75,.06c70.55.06,75.14.08,77.1.41a43.32,43.32,0,0,1,11,3.28c10,4.65,17.24,12.93,19.9,22.83,1.16,4.26,1.12,2.64,1.12,46.16,0,38.93,0,40.66-.42,42.4a27.32,27.32,0,0,1-5.12,10.9,33.81,33.81,0,0,1-7,6.27c-1.5.91-53.14,28.46-55,29.38-.53.24-21.46,11.36-46.5,24.71s-46.36,24.67-47.4,25.14a31.73,31.73,0,0,1-27.81-1.14c-1.32-.71-22.27-11.85-46.51-24.77s-44.57-23.7-45.07-23.94c-1.87-.9-53.53-28.45-55-29.36a34,34,0,0,1-7-6.29,26.26,26.26,0,0,1-5-10.59l-.5-2.13v-80.55c0-76.7,0-80.63.39-82.28a26.82,26.82,0,0,1,8.42-14.4,36.12,36.12,0,0,1,3.17-2.48c.79-.51,8.11-4.48,16.27-8.82s19.78-10.55,25.83-13.76,11.94-6.33,13.08-6.9,22.62-12,47.71-25.36,46.4-24.65,47.37-25.08A31.36,31.36,0,0,1,353.86,1082Z" transform="translate(-66.77 -982.16)"/><text class="cls-2" transform="translate(749.22 362.1)">Geminos</text></svg>
